<?xml version="1.0" encoding="utf-8"?>
<!-- Generator: Adobe Illustrator 16.0.0, SVG Export Plug-In . SVG Version: 6.00 Build 0)  -->
<!DOCTYPE svg PUBLIC "-//W3C//DTD SVG 1.1//EN" "http://www.w3.org/Graphics/SVG/1.1/DTD/svg11.dtd">
<svg version="1.1" id="Layer_1" xmlns="http://www.w3.org/2000/svg" xmlns:xlink="http://www.w3.org/1999/xlink" x="0px" y="0px"
	 width="1000px" height="300px" viewBox="0 0 1000 300" enable-background="new 0 0 1000 300" xml:space="preserve">
<g>
	<path fill="#424242" d="M383.914,196.457h-16.928v-43.905c0-3.377-0.175-5.543-0.521-6.498c-0.697-1.989-2.344-2.985-4.948-2.985
		c-3.561,0-7.423,1.862-11.59,5.584v47.804H333.39v-43.152c0-3.456-0.219-5.788-0.655-6.998c-0.79-2.158-2.583-3.238-5.381-3.238
		c-3.848,0-7.696,1.684-11.543,5.053v48.335h-16.928V149.97c0-8.419-0.826-14.107-2.474-17.059l15.755-4.296
		c0.954,1.563,1.736,3.82,2.344,6.77c4.688-4.512,10.112-6.77,16.277-6.77c5.469,0,9.982,1.823,13.542,5.468
		c0.695,0.781,1.563,1.868,2.604,3.254c5.729-5.814,12.023-8.723,18.882-8.723c6.683,0,11.458,1.779,14.323,5.338
		c2.517,3.212,3.776,8.248,3.776,15.104V196.457z"/>
	<path fill="#424242" d="M456.052,162.86c0,10.157-2.473,18.407-7.422,24.743c-5.383,6.857-13.022,10.284-22.917,10.284
		c-9.637,0-17.146-3.427-22.527-10.284c-4.949-6.253-7.423-14.326-7.423-24.222s2.475-18.012,7.423-24.35
		c5.382-7.033,12.891-10.548,22.527-10.548c9.721,0,17.318,3.386,22.787,10.157C453.534,144.892,456.052,152.965,456.052,162.86z
		 M437.042,162.793c0-6.093-0.479-10.666-1.433-13.713c-1.65-5.136-4.862-7.703-9.636-7.703c-4.602,0-7.727,2.656-9.375,7.966
		c-0.957,3.048-1.433,7.619-1.433,13.714c0,6.617,0.434,11.362,1.303,14.232c1.562,5.401,4.818,8.1,9.766,8.1
		C433.438,185.389,437.042,177.857,437.042,162.793z"/>
	<path fill="#424242" d="M513.996,184.346l-4.165,12.111h-49.092v-10.81l31.425-43.231h-28.821v-12.238h49.483v11.979
		l-29.429,42.188H513.996z"/>
	<path fill="#424242" d="M542.384,111.425c0,3.04-1.043,5.6-3.126,7.683c-2.082,2.083-4.646,3.125-7.683,3.125
		c-2.953,0-5.47-1.063-7.552-3.191c-2.083-2.125-3.126-4.663-3.126-7.617c0-3.038,1.063-5.6,3.19-7.681
		c2.126-2.084,4.707-3.125,7.748-3.125c3.037,0,5.554,1.041,7.553,3.125C541.385,105.826,542.384,108.388,542.384,111.425z
		 M540.3,196.457h-17.448v-65.623l17.448-2.74V196.457z"/>
	<path fill="#424242" d="M583.401,196.306c-3.124,1.23-6.598,1.843-10.416,1.843c-8.073,0-13.242-3.041-15.497-9.128
		c-1.043-2.779-1.563-7.776-1.563-14.994V124.22c0-7.823-0.305-14.518-0.911-20.08l17.84-4.043c0.606,3.387,0.913,9.16,0.913,17.319
		v51.956c0,6.686,0,9.94,0,9.766c0.432,4.604,1.996,6.901,4.687,6.901c0.694,0,1.346-0.085,1.954-0.26L583.401,196.306z"/>
	<path fill="#424242" d="M618.429,196.306c-3.124,1.23-6.598,1.843-10.416,1.843c-8.073,0-13.24-3.041-15.495-9.128
		c-1.043-2.779-1.563-7.776-1.563-14.994V124.22c0-7.823-0.305-14.518-0.91-20.08l17.839-4.043c0.606,3.387,0.91,9.16,0.91,17.319
		v51.956c0,6.686,0,9.94,0,9.766c0.434,4.604,1.997,6.901,4.688,6.901c0.694,0,1.347-0.085,1.954-0.26L618.429,196.306z"/>
	<path fill="#424242" d="M681.063,189.164l-9.245,10.679c-4.516-1.911-7.641-4.601-9.376-8.074c-1.737,1.65-3.082,2.821-4.037,3.518
		c-3.386,2.429-7.857,3.645-13.412,3.645c-7.118,0-12.631-1.688-16.537-5.064c-4.253-3.548-6.38-8.782-6.38-15.71
		c0-15.229,10.639-22.848,31.917-22.848c1.382,0,2.679,0,3.893,0v-2.707c0-3.522-0.435-5.925-1.299-7.216
		c-1.037-1.716-3.2-2.579-6.487-2.579c-5.361,0-11.762,2.474-19.198,7.423l-7.393-12.501c3.124-1.996,6.726-3.819,10.807-5.47
		c6.423-2.603,12.501-3.905,18.23-3.905c11.632,0,18.794,3.864,21.485,11.588c0.867,2.52,1.259,6.513,1.172,11.979l-0.39,23.569
		c0,3.474,0.346,6.081,1.042,7.814C676.722,185.304,678.459,187.256,681.063,189.164z M657.495,167.289h-0.77
		c-5.217,0-8.851,0.435-10.899,1.302c-3.422,1.479-5.129,4.427-5.129,8.855c0,2.43,0.671,4.492,2.018,6.184
		c1.345,1.694,3.232,2.538,5.664,2.538c3.299,0,6.336-1.518,9.116-4.558V167.289z"/>
	<path fill="#424242" d="M737.314,121.843c0-8.42-0.607-14.409-1.823-17.969l10.548-2.084c1.041,3.029,1.563,9.695,1.563,19.996
		v61.406c0,2.168,0.131,3.64,0.39,4.418c0.521,1.382,1.605,2.076,3.256,2.076c0.261,0,0.694,0,1.303,0l2.084,6.643
		c-2.084,0.953-4.255,1.431-6.512,1.431c-3.124,0-5.709-0.933-7.748-2.801c-2.04-1.865-3.06-4.925-3.06-9.179V121.843z"/>
	<path fill="#424242" d="M764.92,145.542l22.266-15.104h7.943v57.816h11.98v8.203h-34.247v-8.203h11.979v-45.447
		c-3.212,2.085-9.114,4.864-17.708,8.334L764.92,145.542z"/>
	<path fill="#424242" d="M846.563,198.67c-9.29,0-16.494-3.06-21.616-9.181c-5.121-6.12-7.682-14.561-7.682-25.326
		c0-10.504,2.625-18.793,7.878-24.871c5.251-6.075,12.305-9.114,21.161-9.114c9.288,0,16.491,3.06,21.616,9.18
		c5.118,6.118,7.682,14.562,7.682,25.326c0,10.505-2.628,18.796-7.878,24.869C862.469,195.632,855.418,198.67,846.563,198.67z
		 M827.941,162.471c0,9.722,1.475,16.778,4.428,21.159c2.951,4.385,7.726,6.577,14.324,6.577c12.153,0,18.229-7.943,18.229-23.832
		c0-9.721-1.476-16.774-4.428-21.159c-2.952-4.38-7.727-6.575-14.322-6.575C834.017,138.641,827.941,146.584,827.941,162.471z"/>
	<path fill="#424242" d="M892.268,148.243c0-4.42-0.131-7.451-0.392-9.098c-0.259-1.646-0.954-3.725-2.082-6.239l9.896-2.728
		c1.561,3.34,2.343,6.684,2.343,10.025c6.685-6.685,13.498-10.025,20.444-10.025c3.472,0,6.661,0.867,9.571,2.603
		c2.906,1.739,5.014,4.036,6.314,6.902c1.041,2.344,1.563,4.862,1.563,7.554v49.221H929.64v-43.882c0-5.47-0.804-9.094-2.41-10.875
		c-1.605-1.778-3.971-2.668-7.097-2.668c-2.604,0-5.665,0.89-9.179,2.668c-3.517,1.781-6.445,3.93-8.79,6.447v48.31h-9.896V148.243z
		"/>
</g>
<g>
	<path fill-rule="evenodd" clip-rule="evenodd" d="M253.886,146.609c-4.275-5.021-8.938-9.727-13.664-14.331
		c-3.89-3.788-7.952-7.451-12.267-10.736c-3.565-2.714-7.613-4.799-11.645-7.283c1.186-9.114,2.314-17.79,3.472-26.676
		c-1.369-0.86-3.23-2.028-4.601-2.888c0-4.671,0-8.584,0-12.463c-2.786-1.414-5.428-2.753-8.156-4.138c0-2.221,0-4.355,0-6.601
		c-7.041-3.339-13.984-6.634-20.719-9.833c0.217-2.69,0.376-4.705,0.604-7.548c-9.579,0-18.818,0-28.458,0
		c-1.445,4.078-3.025,8.534-4.693,13.25c-1.666-1.015-8.18-4.957-8.018-4.616c-34.516,14.554-63.522,28.045-77.139,63.257
		c-10.396,26.881-2.583,76.807,6.483,88.392c2.903-4.259,9.888-13.648,9.888-13.648s5.984,20.79,26.333,40.543l9.53-15.767
		c0,0,20.436,28.582,23.899,33.651c4.93-0.491,9.284-0.926,13.669-1.364c0.666,3.335-4.397,5.823-3.852,8.552
		c2.066-0.672,25.397-8.689,32.277-12.838c35.063-21.143,24.61-24.896,25.782-33.88c6.9-3.661,13.958,4.653,18.803,4.273
		c4.9-0.382,13.073-7.706,12.463-10.823c-1.587-8.115-7.048-9.182-1.682-23.562c0.945-2.532,2.706-8.979,4.005-15.11
		C252.818,163.479,263.32,157.685,253.886,146.609z M185.939,60.35c5.666,1.887,10.446,3.476,15.589,5.187
		c-2.492,4.145-19.186,23.426-19.493,23.345C182.554,83.929,185.143,64.433,185.939,60.35z M148.248,62.563
		c9.925,6.748,14.995,16.979,22.479,25.508c-2.701-12.661-10.203-24.407-7.294-38.298c4.854-0.605,9.359-1.171,14.759-1.845
		c-1.645,7.985-2.577,37.672-4.451,46.058c-4.724-3.75-26.25-20.32-42.123-22.814C131.593,70.559,142.768,64.783,148.248,62.563z
		 M73.918,152.094c0.061,0.048-0.102-0.014-0.105-0.091c-1.347-31.258,10.994-51.114,24.396-59.933
		c16.03-10.546,35.976-10.746,46.966-9.985c0,0-32.359,3.352-43.857,16.388c0,0,5.642,0.816,6.609,1.448
		c5.681-3.084,12.647-8.031,18.508-5.44C98.542,103.122,75.485,144.164,73.918,152.094z M155.588,216.759
		c-2.133-7.89-7.831-15.223-14.07-19.962c-4.445-3.375-12.971-9.185-13.557-8.864c11.718,13.196,19.861,27.524,17.891,45.803
		c-11.035-12.131-24.36-44.741-27.02-50.398c-2.408,6.005-4.402,10.976-6.671,16.634c-6.074-13.026-10.357-25.947-9.628-40.963
		c-5.354,5.448-10.707,10.895-16.625,16.915c1.339-9.988,2.625-19.41,6.623-28.32c5.81-12.958,16.337-21.131,28.712-28.98
		c-9.112,21.702-8.798,42.213,1.259,62.253c0.35-0.011-7.965-26.691,1.693-36.692c-1.058,25.995,9.901,28.088,28.419,53.141
		C155.367,201.051,155.925,210.021,155.588,216.759z M185.342,233.981c4.472-9.561,8.826-18.864,13.449-28.744
		c2.329,2.005,4.433,3.816,6.689,5.762C200.549,220.562,195.3,229.116,185.342,233.981z M230.534,205.792
		c-3.98-4.015-8.382-7.344-14.666-5.712c-0.171-0.381-0.344-0.763-0.515-1.144c5.491-4.997,10.979-9.992,17.039-15.502
		c0.651,7.185,1.234,13.647,1.811,19.985C232.767,204.35,231.886,204.918,230.534,205.792z M223.186,154.644
		c1.133,4.361,0.765,8.021,4.487,12.854c0.176-0.545,0.279-1.131,0.549-1.623c0.269-0.498,0.705-0.906,1.412-1.775
		c1.981,1.184,4.106,2.089,5.757,3.531c2.339,2.042,2.517,4.691,0.338,6.995c-2.126,2.254-4.426,4.386-6.875,6.28
		c-4.065,3.149-8.074,6.491-12.542,8.973c-5.555,3.081-12.178-0.012-13.296-6.268c-1.128-6.322,4.881-12.818,4.211-20.252
		c-4.133-0.858-15.377-2.13-20.533-2.924c-4.519-0.692-8.555-2.28-10.936-6.157c-2.271-3.705-5.801-6.166-9.581-3.843
		c-2.662,1.639,0.334,20.355,1.073,22.696c-2.209,0.161-3.608,0.261-5.913,0.428c-1.908-2.801-2.894-11.257-18.484-25.399
		c0.744,18.58,4.184,28.721,29.59,55.834c6.667,7.115,8.799,14.776,6.415,23.872c-1.573,5.999-12.608,13.517-13.854,13.637
		c1.498-1.855,6.388-7.643,6.208-17.144c-0.166-8.772-2.171-17.42-24.141-40.492c-12.384-13.009-11.415-33.011-11.715-33.178
		c-1.599,1.852-3.199,3.706-5.412,6.271c-0.171-6.585-4-28.246,9.935-30.632c0.117-0.841,0.242-1.728,0.423-3.001
		c-6.271-0.046-14.721-3.244-12.058-14.786c0.805-3.494,2.577-7.135,4.73-10.14c3.851-5.378,9.447-8.646,16.021-9.196
		c3.065-0.255,6.452,0.834,9.368,2.079c2.57,1.095,4.689,3.252,7.005,4.944c-0.13,0.36-25.597-4.117-30.031,10.892
		c-0.528,1.788,0.663,4.771,2.617,5.209c13.511,3.029,12.613,9.623,12.244,26.34c-0.155,6.933,3.627,14.184,8.988,17.869
		c0-1.683,0.2-3.196-0.035-4.639c-0.927-5.659-0.827-11.129,1.091-16.687c2.087-6.052,1.963-12.325-0.021-18.113
		c4.369-0.28,8.783-0.561,13.259-0.845c0.296-1.121,0.495-1.876,0.682-2.59c-1.837-0.465-3.48-0.879-5.924-1.498
		c1.849-1.229,3.591-1.371,4.137-2.758c0.364-0.921-0.792-1.948-0.667-2.831c0.814-5.854,7.921-7.367,13.833-6.069
		c2.583,0.566,5.197,1.118,7.677,2.013c2.346,0.842,4.532,2.12,6.793,3.209c0.49-1.606,0.919-3.011,1.458-4.772
		c-4.926-3.895-11.521-2.889-17.397-4.943c4.564-5.616,16.358-19.51,17.084-20.734c2.961,1.049,5.594,1.982,8.737,3.097
		c-0.624,2.034-4.307,10.481-5.086,11.916c-3.887-0.729-6.358,0.84-6.936,4.4c2.059,0.866,8.653,1.698,10.099,7.831
		c1.149,0.621,2.3,1.242,4.11,2.22c-0.485,2.753-6.102,14.011,2.488,18.535c6.869,3.617,13.829,7.615,19.318,12.906
		c5.381,5.186,12.763,8.889,15.369,17.202C248.499,153.961,231.671,154.644,223.186,154.644z"/>
	<path fill-rule="evenodd" clip-rule="evenodd" d="M201.186,119.708c-4.575-6.861-6.321-9.268-13.209-10.37
		c6.795,5.045,6.168,8.556,4.98,8.563c-6.855,0.041-14.956,4.263-13.111,5.23c4.307,2.257,11.716,6.973,14.906,5.131
		c2.573-1.487,1.804-3.46,3.862-5.13C198.938,122.869,202.737,122.036,201.186,119.708z"/>
	<path fill-rule="evenodd" clip-rule="evenodd" d="M196.641,130.431c0.07,1.37-0.227,2.547,0.231,3.089
		c0.979,1.16,2.3,2.065,3.571,2.943c5.848,4.043,12.994,6.837,13.989,16.607c3.277-2.812,5.652-4.846,8.714-7.471
		c-2.073-1.376-3.648-3.147-5.508-3.526C209.681,140.452,203.881,135.149,196.641,130.431z"/>
	<path fill-rule="evenodd" clip-rule="evenodd" d="M183.399,132.025c-1.155,0-3.325,1.18-3.536,2.967
		c-0.368,3.094,6.106,6.959,6.429,6.75c-0.574-1.046-1.151-2.094-1.854-3.37c2.309-0.445,4.305-0.829,6.658-1.282
		C189.923,135.452,187.263,132.021,183.399,132.025z"/>
</g>
<path fill-rule="evenodd" clip-rule="evenodd" fill="#FFFFFF" d="M185.472,124.203c0,0,4.23-2.946,5.625-2.335
	c1.083,0.476,1.169,3.19,1.831,4.365C193.397,127.068,188.27,124.502,185.472,124.203z"/>
<g>
	<path fill-rule="evenodd" clip-rule="evenodd" fill="#ED2A24" d="M124.195,144.183c-9.658,10-1.343,36.681-1.693,36.692
		c-10.058-20.04-10.371-40.551-1.259-62.253c-12.375,7.85-22.902,16.023-28.712,28.98c-3.999,8.91-5.284,18.332-6.623,28.32
		c5.918-6.021,11.271-11.467,16.625-16.915c-0.729,15.016,3.554,27.937,9.628,40.963c2.269-5.658,4.263-10.629,6.671-16.634
		c2.66,5.657,15.985,38.268,27.02,50.398c1.97-18.278-6.173-32.606-17.891-45.803c0.586-0.32,9.111,5.489,13.557,8.864
		c6.24,4.739,11.937,12.072,14.07,19.962c0.337-6.737-0.221-15.708-2.974-19.435C134.096,172.271,123.137,170.178,124.195,144.183z"
		/>
	<path fill-rule="evenodd" clip-rule="evenodd" fill="#ED2A24" d="M126.435,94.481c-5.861-2.591-12.827,2.356-18.508,5.44
		c-0.967-0.631-6.609-1.448-6.609-1.448c11.498-13.037,43.857-16.388,43.857-16.388c-10.99-0.761-30.936-0.561-46.966,9.985
		c-13.402,8.818-25.743,28.674-24.396,59.933c0.003,0.077,0.166,0.139,0.105,0.091C75.485,144.164,98.542,103.122,126.435,94.481z"
		/>
	<path fill-rule="evenodd" clip-rule="evenodd" fill="#ED2A24" d="M185.342,233.981c9.958-4.865,15.208-13.42,20.138-22.982
		c-2.257-1.945-4.36-3.757-6.689-5.762C194.168,215.117,189.814,224.421,185.342,233.981z"/>
	<path fill-rule="evenodd" clip-rule="evenodd" fill="#ED2A24" d="M178.191,47.928c-5.4,0.674-9.904,1.24-14.759,1.845
		c-2.908,13.891,4.594,25.637,7.294,38.298c-7.485-8.53-12.554-18.76-22.479-25.508c-5.479,2.22-16.654,7.996-16.63,8.608
		c15.873,2.494,37.398,19.065,42.123,22.814C175.614,85.6,176.546,55.913,178.191,47.928z"/>
	<path fill-rule="evenodd" clip-rule="evenodd" fill="#ED2A24" d="M201.528,65.537c-5.143-1.711-9.923-3.3-15.589-5.187
		c-0.796,4.083-3.385,23.579-3.904,28.532C182.343,88.962,199.037,69.682,201.528,65.537z"/>
	<path fill-rule="evenodd" clip-rule="evenodd" fill="#ED2A24" d="M215.354,198.937c0.171,0.381,0.344,0.763,0.515,1.144
		c6.284-1.632,10.686,1.697,14.666,5.712c1.352-0.874,2.232-1.442,3.668-2.372c-0.577-6.338-1.16-12.801-1.811-19.985
		C226.333,188.944,220.844,193.939,215.354,198.937z"/>
	<path fill-rule="evenodd" clip-rule="evenodd" fill="#ED2A24" d="M233.886,136.185c-5.489-5.292-12.449-9.289-19.318-12.906
		c-8.59-4.524-2.974-15.782-2.488-18.535c-1.81-0.978-2.961-1.599-4.11-2.22c-1.446-6.133-8.041-6.965-10.099-7.831
		c0.577-3.561,3.048-5.13,6.936-4.4c0.779-1.434,4.462-9.882,5.086-11.916c-3.143-1.115-5.776-2.048-8.737-3.097
		c-0.726,1.224-12.52,15.118-17.084,20.734c5.877,2.055,12.471,1.049,17.397,4.943c-0.539,1.762-0.969,3.167-1.458,4.772
		c-2.261-1.089-4.447-2.367-6.793-3.209c-2.479-0.895-5.094-1.447-7.677-2.013c-5.913-1.298-13.019,0.215-13.833,6.069
		c-0.124,0.883,1.031,1.91,0.667,2.831c-0.546,1.387-2.288,1.528-4.137,2.758c2.444,0.619,4.087,1.033,5.924,1.498
		c-0.188,0.713-0.386,1.469-0.682,2.59c-4.476,0.284-8.89,0.565-13.259,0.845c1.984,5.788,2.108,12.061,0.021,18.113
		c-1.918,5.558-2.018,11.027-1.091,16.687c0.235,1.442,0.035,2.956,0.035,4.639c-5.361-3.686-9.143-10.937-8.988-17.869
		c0.37-16.717,1.267-23.312-12.244-26.34c-1.954-0.438-3.145-3.421-2.617-5.209c4.434-15.008,29.901-10.531,30.031-10.892
		c-2.316-1.692-4.435-3.849-7.005-4.944c-2.916-1.244-6.303-2.333-9.368-2.079c-6.574,0.55-12.17,3.818-16.021,9.196
		c-2.154,3.005-3.926,6.646-4.73,10.14c-2.663,11.542,5.787,14.74,12.058,14.786c-0.181,1.273-0.306,2.16-0.423,3.001
		c-13.935,2.386-10.106,24.046-9.935,30.632c2.213-2.564,3.813-4.419,5.412-6.271c0.3,0.167-0.669,20.169,11.715,33.178
		c21.97,23.072,23.975,31.72,24.141,40.492c0.18,9.501-4.709,15.288-6.208,17.144c1.246-0.12,12.281-7.638,13.854-13.637
		c2.384-9.096,0.252-16.757-6.415-23.872c-25.406-27.113-28.846-37.254-29.59-55.834c15.591,14.143,16.577,22.599,18.484,25.399
		c2.305-0.167,3.703-0.267,5.913-0.428c-0.738-2.341-3.735-21.057-1.073-22.696c3.779-2.323,7.309,0.138,9.581,3.843
		c2.381,3.877,6.417,5.465,10.936,6.157c5.156,0.794,16.4,2.065,20.533,2.924c0.67,7.434-5.34,13.93-4.211,20.252
		c1.118,6.256,7.741,9.349,13.296,6.268c4.468-2.481,8.477-5.823,12.542-8.973c2.449-1.895,4.749-4.026,6.875-6.28
		c2.178-2.304,2-4.953-0.338-6.995c-1.651-1.442-3.776-2.348-5.757-3.531c-0.707,0.869-1.144,1.277-1.412,1.775
		c-0.27,0.492-0.374,1.078-0.549,1.623c-3.722-4.833-3.354-8.492-4.487-12.854c8.485,0,25.313-0.683,26.069-1.257
		C246.649,145.074,239.268,141.371,233.886,136.185z M184.438,138.373c0.703,1.276,1.279,2.324,1.854,3.37
		c-0.322,0.208-6.796-3.657-6.429-6.75c0.211-1.788,2.381-2.967,3.536-2.967c3.864-0.004,6.524,3.427,7.698,5.065
		C188.743,137.543,186.747,137.928,184.438,138.373z M194.752,128.262c-3.19,1.842-10.6-2.875-14.906-5.131
		c-1.845-0.967,6.255-5.189,13.111-5.23c1.188-0.007,1.814-3.518-4.98-8.563c6.888,1.103,8.634,3.509,13.209,10.37
		c1.552,2.328-2.248,3.161-2.571,3.424C196.557,124.801,197.325,126.775,194.752,128.262z M214.433,153.07
		c-0.995-9.77-8.141-12.564-13.989-16.607c-1.271-0.877-2.592-1.783-3.571-2.943c-0.458-0.542-0.161-1.719-0.231-3.089
		c7.24,4.719,13.04,10.021,20.998,11.643c1.86,0.378,3.435,2.15,5.508,3.526C220.084,148.224,217.709,150.259,214.433,153.07z"/>
</g>
</svg>
